<?xml version="1.0" encoding="utf-8"?>
<!-- Generator: Adobe Illustrator 30.7.0, SVG Export Plug-In . SVG Version: 9.03 Build 0)  -->
<svg version="1.0" xmlns="http://www.w3.org/2000/svg" xmlns:xlink="http://www.w3.org/1999/xlink" x="0px" y="0px"
	 viewBox="0 0 595.3 841.9" style="enable-background:new 0 0 595.3 841.9;" xml:space="preserve">
<style type="text/css">
	.st0{font-family:'KozGoPr6N-Medium-90ms-RKSJ-H';}
	.st1{font-size:34.0158px;}
	.st2{fill:#FFFFFF;}
	.st3{fill:#231815;}
	.st4{font-size:14.1732px;}
	.st5{font-family:'KozGoPr6N-Regular-90ms-RKSJ-H';}
	.st6{font-size:12.7559px;}
	
		.st7{fill:none;stroke:#000000;stroke-width:1.4173;stroke-linecap:round;stroke-linejoin:round;stroke-miterlimit:10;stroke-dasharray:56.6929,5.6693;}
	.st8{fill:none;stroke:#000000;stroke-width:0.7087;stroke-linecap:round;stroke-linejoin:round;stroke-miterlimit:10;}
	.st9{fill:none;stroke:#000000;stroke-width:1.4173;stroke-linecap:round;stroke-linejoin:round;stroke-miterlimit:10;}
	.st10{fill:none;stroke:#000000;stroke-width:0.2835;stroke-linecap:round;stroke-linejoin:round;stroke-miterlimit:10;}
	.st11{fill:none;stroke:#000000;stroke-width:0.2835;stroke-miterlimit:10;}
	.st12{fill:none;stroke:#000000;stroke-width:0.2835;stroke-miterlimit:10;stroke-dasharray:0.8504,0.5669;}
	.st13{fill:none;stroke:#000000;stroke-width:0.7087;stroke-miterlimit:10;}
	.st14{fill:none;stroke:#000000;stroke-width:0.2835;stroke-linejoin:round;stroke-miterlimit:10;}
	.st15{font-size:11.3386px;}
	.st16{font-size:12px;}
	.st17{font-size:11.3386px;glyph-orientation-vertical:0;writing-mode:tb;}
	.st18{fill:none;stroke:#000000;stroke-width:1.4173;stroke-linecap:round;stroke-linejoin:round;}
	.st19{font-family:'KozGoPr6N-Bold-90ms-RKSJ-H';}
	.st20{font-size:22.6772px;glyph-orientation-vertical:0;writing-mode:tb;}
	.st21{fill:none;stroke:#000000;stroke-width:1.4173;stroke-linejoin:round;stroke-miterlimit:10;}
	.st22{fill:none;stroke:#000000;stroke-width:0.2835;stroke-miterlimit:10;stroke-dasharray:1.7008,0.5669;}
	.st23{fill:none;stroke:#000000;stroke-width:1.4173;stroke-linecap:round;stroke-linejoin:round;stroke-dasharray:55.0014,5.5001;}
	.st24{font-size:22.6772px;}
	.st25{fill:none;stroke:#000000;stroke-width:0.9921;stroke-miterlimit:10;}
	.st26{fill:none;stroke:#000000;stroke-width:0.7087;stroke-linejoin:round;stroke-miterlimit:10;}
	.st27{font-size:19.8425px;}
	.st28{font-size:17.0079px;}
	.st29{font-size:14.1732px;glyph-orientation-vertical:0;writing-mode:tb;}
</style>
<g id="必要寸法">
	<g>
		<text transform="matrix(1 0 0 1 36.985 56.745)" class="st0 st1">タイトスカート 作図</text>
		<rect x="37" y="26.8" class="st2" width="313.8" height="42.7"/>
		<text transform="matrix(1 0 0 1 36.985 56.745)" class="st3 st0 st1">タイトスカート 作図</text>
	</g>
	<g>
		<text transform="matrix(1 0 0 1 36.9572 81.1554)"><tspan x="0" y="0" class="st0 st4">必要寸法(9R)</tspan><tspan x="0" y="17" class="st5 st6">Ｗ＝64　Ｈ＝91　腰丈＝18　スカート丈＝60</tspan></text>
		<rect x="37" y="68.7" class="st2" width="260.3" height="33.8"/>
		<text transform="matrix(1 0 0 1 36.9572 81.1554)"><tspan x="0" y="0" class="st3 st0 st4">必要寸法(9R)</tspan><tspan x="0" y="17" class="st3 st5 st6">Ｗ＝64　Ｈ＝91　腰丈＝18　スカート丈＝60</tspan></text>
	</g>
</g>
<g id="後ろ_00000160165546107208597330000018052385425871892896_">
	<g>
		<g>
			<line class="st7" x1="85.2" y1="353" x2="85.2" y2="774.7"/>
			<line class="st8" x1="85.2" y1="349.5" x2="85.2" y2="353"/>
			<path class="st9" d="M246.5,477c0-48.6-5.6-85-15.4-127.5c-0.6-2.8-1.3-5.5-1.9-8.3"/>
			<line class="st9" x1="246.5" y1="774.7" x2="85.2" y2="774.7"/>
			<line class="st8" x1="85.2" y1="477" x2="139" y2="477"/>
			<line class="st9" x1="246.5" y1="774.7" x2="246.5" y2="477"/>
			<line class="st8" x1="246.5" y1="477" x2="246.5" y2="349.5"/>
			<line class="st8" x1="139" y1="477" x2="192.7" y2="477"/>
			<line class="st8" x1="192.7" y1="477" x2="246.5" y2="477"/>
			<line class="st8" x1="192.7" y1="477" x2="192.7" y2="433.7"/>
			<line class="st8" x1="135.4" y1="477" x2="135.4" y2="351.2"/>
			<line class="st8" x1="85.2" y1="349.5" x2="246.5" y2="349.5"/>
			<path class="st9" d="M229.2,341.2c-8.7,1.3-17.1,2.5-25.4,3.5"/>
			<path class="st9" d="M135.4,351.2c-17.3,1.1-31.7,1.8-50.2,1.8"/>
			<line class="st8" x1="135.4" y1="351.2" x2="135.4" y2="349.5"/>
			<path class="st9" d="M157.8,349.6c-7.6,0.6-15.1,1.2-22.4,1.6"/>
			<path class="st9" d="M192.7,346c-3.8,0.4-7.4,0.9-11.1,1.2"/>
			<path class="st9" d="M181.6,347.3c-8.1,0.9-16,1.6-23.8,2.3"/>
			<path class="st9" d="M203.8,344.7c-3.8,0.5-7.4,0.9-11.1,1.4"/>
			<line class="st8" x1="146.6" y1="350.5" x2="146.6" y2="441.6"/>
			<line class="st10" x1="146.6" y1="441.6" x2="150.2" y2="441.6"/>
			<line class="st8" x1="192.7" y1="433.7" x2="192.7" y2="346"/>
			<line class="st10" x1="192.7" y1="434.5" x2="196.3" y2="434.5"/>
			<line class="st9" x1="196.3" y1="434.5" x2="181.6" y2="347.3"/>
			<line class="st9" x1="203.9" y1="344.8" x2="196.3" y2="434.5"/>
			<line class="st9" x1="150.2" y1="441.6" x2="135.4" y2="351.2"/>
			<line class="st9" x1="157.8" y1="349.6" x2="150.2" y2="441.6"/>
		</g>
		<path class="st11" d="M246.5,477c-37.2,40.2-126.3,39.6-161.2,0"/>
		<path class="st12" d="M85.5,477c12.3-17.3,41.7-17,53.2,0"/>
		<path class="st12" d="M139.2,477c12.3-17.3,41.7-17,53.2,0"/>
		<path class="st12" d="M193,477c12.3-17.3,41.7-17,53.2,0"/>
		<line class="st13" x1="246.9" y1="306.9" x2="84.9" y2="306.9"/>
		<line class="st13" x1="246.7" y1="301.3" x2="246.7" y2="312.6"/>
		<line class="st13" x1="84.9" y1="301.3" x2="84.9" y2="312.6"/>
		<polyline class="st14" points="135.2,477 145.7,487.5 139,477 		"/>
		<g>
			<text transform="matrix(1 0 0 1 160.3703 449.1609)"><tspan x="0" y="0" class="st5 st15">→</tspan><tspan x="-1.8" y="8.5" class="st5 st15">0.5</tspan></text>
			<rect x="158.6" y="439.2" class="st2" width="15" height="22.3"/>
			<text transform="matrix(1 0 0 1 160.3703 449.1609)"><tspan x="0" y="0" class="st3 st5 st15">→</tspan><tspan x="-1.8" y="8.5" class="st3 st5 st15">0.5</tspan></text>
		</g>
		<polyline class="st14" points="146.6,441.6 157.2,451.3 150.2,441.6 		"/>
		<path class="st11" d="M146.6,477c-7.3-8.2-7.2-27.8,0-35.4"/>
		<g>
			<text transform="matrix(1 0 0 1 138.8081 462.7299)" class="st5 st4">5</text>
			<rect x="138.8" y="450.3" class="st2" width="7.8" height="17.3"/>
			<text transform="matrix(1 0 0 1 138.8081 462.7299)" class="st3 st5 st4">5</text>
		</g>
		<path class="st11" d="M192.7,477c-8.7-9.8-8.6-33.3,0-42.5"/>
		<g>
			<text transform="matrix(1 0 0 1 205.4241 444.1591)"><tspan x="0" y="0" class="st5 st15">→</tspan><tspan x="-1.8" y="8.5" class="st5 st15">0.5</tspan></text>
			<rect x="203.6" y="434.2" class="st2" width="15" height="22.3"/>
			<text transform="matrix(1 0 0 1 205.4241 444.1591)"><tspan x="0" y="0" class="st3 st5 st15">→</tspan><tspan x="-1.8" y="8.5" class="st3 st5 st15">0.5</tspan></text>
		</g>
		<polyline class="st14" points="192.7,434.5 202.8,445.5 196.2,434.5 		"/>
		<g>
			<text transform="matrix(1 0 0 1 182.8706 459.8097)" class="st5 st4">6</text>
			<rect x="182.9" y="447.3" class="st2" width="7.8" height="17.3"/>
			<text transform="matrix(1 0 0 1 182.8706 459.8097)" class="st3 st5 st4">6</text>
		</g>
		<g>
			<text transform="matrix(0.9294 0 0 1 90.3801 471.6762)" class="st0 st16">HL</text>
			<rect x="90.4" y="461.1" class="st2" width="13.6" height="15"/>
			<text transform="matrix(0.9294 0 0 1 90.3801 471.6762)" class="st3 st0 st16">HL</text>
		</g>
		<path class="st11" d="M246.7,668.3c27.1,32.7,26.7,75.6,0,106.3"/>
		<g>
			<text transform="matrix(1 0 0 1 258.5286 725.3454)" class="st5 st4">15</text>
			<rect x="258.5" y="712.9" class="st2" width="15.6" height="17.3"/>
			<text transform="matrix(1 0 0 1 258.5286 725.3454)" class="st3 st5 st4">15</text>
		</g>
		<g>
			<text transform="matrix(1 0 0 1 50.1518 350.141)" class="st5 st15">↓0.5</text>
			<rect x="50.2" y="340.2" class="st2" width="26.3" height="13.8"/>
			<text transform="matrix(1 0 0 1 50.1518 350.141)" class="st3 st5 st15">↓0.5</text>
		</g>
		<line class="st10" x1="85.2" y1="350.8" x2="77.6" y2="348.8"/>
		<g>
			<text transform="matrix(0.9294 0 0 1 87.5347 344.029)" class="st0 st16">WL</text>
			<rect x="87.5" y="333.5" class="st2" width="16" height="15"/>
			<text transform="matrix(0.9294 0 0 1 87.5347 344.029)" class="st3 st0 st16">WL</text>
		</g>
		<g>
			<g>
				<g>
					<text transform="matrix(1 0 0 1 139.0567 509.1914)"><tspan x="0" y="0" class="st5 st4">H</tspan><tspan x="-3" y="5.7" class="st5 st4">—</tspan><tspan x="1.1" y="14.2" class="st5 st4">4</tspan></text>
					<text transform="matrix(1 0 0 1 152.7466 516.2787)" class="st5 st4">＋2－1</text>
				</g>
				<g>
					<rect x="136" y="493.2" class="st2" width="60.7" height="34.9"/>
				</g>
				<g>
					<text transform="matrix(1 0 0 1 139.0567 509.1914)"><tspan x="0" y="0" class="st3 st5 st4">H</tspan><tspan x="-3" y="5.7" class="st3 st5 st4">—</tspan><tspan x="1.1" y="14.2" class="st3 st5 st4">4</tspan></text>
					<text transform="matrix(1 0 0 1 152.7466 516.2787)" class="st3 st5 st4">＋2－1</text>
				</g>
			</g>
			<g>
				<text transform="matrix(1 0 0 1 170.63 517.8381)" class="st5 st17">（ゆとり分）</text>
				<rect x="165" y="517.8" class="st2" width="11.3" height="68"/>
				<text transform="matrix(1 0 0 1 170.63 517.8381)" class="st3 st5 st17">（ゆとり分）</text>
			</g>
			<g>
				<text transform="matrix(1 0 0 1 188.7539 517.8382)" class="st5 st17">（前後差）</text>
				<rect x="183.1" y="517.8" class="st2" width="11.3" height="56.7"/>
				<text transform="matrix(1 0 0 1 188.7539 517.8382)" class="st3 st5 st17">（前後差）</text>
			</g>
		</g>
		<g>
			<text transform="matrix(1 0 0 1 237.8199 334.7161)" class="st5 st4">1.2</text>
			<rect x="237.8" y="322.2" class="st2" width="18.7" height="17.3"/>
			<text transform="matrix(1 0 0 1 237.8199 334.7161)" class="st3 st5 st4">1.2</text>
		</g>
		<polyline class="st11" points="231.1,349.5 239.2,335.6 229.2,341.2 		"/>
		<polyline class="st11" points="231.2,349.5 250.7,360.3 246.6,349.5 		"/>
		<g>
			<text transform="matrix(-1 0 0 1 259.2838 367.0452)" class="st5 st15">〇</text>
			<rect x="247.9" y="357.1" class="st2" width="11.3" height="13.8"/>
			<text transform="matrix(-1 0 0 1 259.2838 367.0452)" class="st3 st5 st15">〇</text>
		</g>
		<g>
			<g>
				<line class="st18" x1="127.6" y1="551.8" x2="127.6" y2="699.7"/>
				<g>
					<polygon points="123.1,560.2 124.4,560.7 127.6,551.9 130.7,560.7 132.1,560.2 127.6,547.8 					"/>
				</g>
				<g>
					<polygon points="123.1,691.3 124.4,690.8 127.6,699.5 130.7,690.8 132.1,691.3 127.6,703.7 					"/>
				</g>
			</g>
		</g>
		<g>
			<text transform="matrix(1 0 0 1 148.7922 486.0909)"><tspan x="0" y="0" class="st5 st15">←</tspan><tspan x="-1.8" y="8.5" class="st5 st15">0.5</tspan></text>
			<rect x="147" y="478.9" class="st2" width="15" height="16.7"/>
			<text transform="matrix(1 0 0 1 148.7922 486.0909)"><tspan x="0" y="0" class="st3 st5 st15">←</tspan><tspan x="-1.8" y="8.5" class="st3 st5 st15">0.5</tspan></text>
		</g>
		<text transform="matrix(1 0 0 1 169.7197 592.3503)" class="st19 st20">後ろ</text>
		<line class="st21" x1="246.7" y1="491.1" x2="238.2" y2="491.1"/>
		<line class="st11" x1="246.7" y1="491.1" x2="255.2" y2="497.9"/>
		<g>
			<g>
				<text transform="matrix(1 0 0 1 256.3827 499.8396)" class="st5 st17">あき止り（　）</text>
				<rect x="250.7" y="499.8" class="st2" width="11.3" height="79.4"/>
				<text transform="matrix(1 0 0 1 256.3827 499.8396)" class="st3 st5 st17">あき止り（　）</text>
			</g>
			<g>
				<text transform="matrix(1 0 0 1 256.3827 550.2921)" class="st5 st17">左</text>
				<rect x="250.7" y="550.3" class="st2" width="11.3" height="11.3"/>
				<text transform="matrix(1 0 0 1 256.3827 550.2921)" class="st3 st5 st17">左</text>
			</g>
		</g>
		<path class="st11" d="M84.9,306.9c23.3-26.8,79.1-26.4,101,0"/>
		<g>
			<g>
				<g>
					<text transform="matrix(0.998 0 0 1 103.429 287.7008)" class="st5 st16">W＋1</text>
					<text transform="matrix(1.9959 0 0 1 104.6864 293.3703)" class="st5 st16">—</text>
					<text transform="matrix(0.998 0 0 1 114.9193 301.8742)" class="st5 st16">4</text>
					<text transform="matrix(0.998 0 0 1 132.2523 294.7882)" class="st5 st16">－2= ◎</text>
				</g>
				<g>
					<rect x="103.4" y="271.7" class="st2" width="70.2" height="34.2"/>
				</g>
				<g>
					<text transform="matrix(0.998 0 0 1 103.429 287.7008)" class="st3 st5 st16">W＋1</text>
					<text transform="matrix(1.9959 0 0 1 104.6864 293.3703)" class="st3 st5 st16">—</text>
					<text transform="matrix(0.998 0 0 1 114.9193 301.8742)" class="st3 st5 st16">4</text>
					<text transform="matrix(0.998 0 0 1 132.2523 294.7882)" class="st3 st5 st16">－2= ◎</text>
				</g>
			</g>
		</g>
		<line class="st13" x1="185.8" y1="301.3" x2="185.8" y2="312.6"/>
		<path class="st12" d="M231.6,307.2c3.5-12.4,11.9-12.2,15.2,0"/>
		<g>
			<text transform="matrix(1 0 0 1 233.4995 296.3272)" class="st5 st15">〇</text>
			<rect x="233.5" y="289.2" class="st2" width="11.3" height="8.2"/>
			<text transform="matrix(1 0 0 1 233.4995 296.3272)" class="st3 st5 st15">〇</text>
		</g>
		<path class="st22" d="M185.8,306.8c5.3-12.4,17.9-12.2,22.9,0"/>
		<path class="st22" d="M208.7,306.9c5.3-12.4,17.9-12.2,22.9,0"/>
		<g>
			<text transform="matrix(1 0 0 1 191.6259 296.327)" class="st5 st15">●</text>
			<rect x="191.6" y="289.2" class="st2" width="11.3" height="8.2"/>
			<text transform="matrix(1 0 0 1 191.6259 296.327)" class="st3 st5 st15">●</text>
		</g>
		<g>
			<text transform="matrix(1 0 0 1 214.356 296.3269)" class="st5 st15">●</text>
			<rect x="214.4" y="289.2" class="st2" width="11.3" height="8.2"/>
			<text transform="matrix(1 0 0 1 214.356 296.3269)" class="st3 st5 st15">●</text>
		</g>
		<path class="st11" d="M229.2,341.2c-13.4,36.4-3.2,119.3,17.3,149.9"/>
		<g>
			<text transform="matrix(1 0 0 1 217.7141 428.2545)" class="st5 st4">21</text>
			<rect x="217.7" y="415.8" class="st2" width="15.6" height="17.3"/>
			<text transform="matrix(1 0 0 1 217.7141 428.2545)" class="st3 st5 st4">21</text>
		</g>
		<line class="st13" x1="231.6" y1="301.3" x2="231.6" y2="312.6"/>
		<text transform="matrix(0 1 -1 0 87.7321 502.3785)" class="st5 st4">CB</text>
		<path class="st10" d="M157.8,349.6c-6.4-14.5-18.5-13.4-22.4,1.7"/>
		<g>
			<text transform="matrix(1 0 0 1 140.8869 342.9901)" class="st5 st15">●</text>
			<rect x="140.9" y="333" class="st2" width="11.3" height="13.8"/>
			<text transform="matrix(1 0 0 1 140.8869 342.9901)" class="st3 st5 st15">●</text>
		</g>
		<path class="st10" d="M203.8,344.7c-6.8-14.3-18.7-12.4-22.1,2.8"/>
		<g>
			<text transform="matrix(1 0 0 1 186.3321 339.3055)" class="st5 st15">●</text>
			<rect x="186.3" y="329.3" class="st2" width="11.3" height="13.8"/>
			<text transform="matrix(1 0 0 1 186.3321 339.3055)" class="st3 st5 st15">●</text>
		</g>
		<g>
			<text transform="matrix(1 0 0 1 129.693 221.8948)" class="st5 st17">（ゆとり分）</text>
			<rect x="124" y="221.9" class="st2" width="11.3" height="68"/>
			<text transform="matrix(1 0 0 1 129.693 221.8948)" class="st3 st5 st17">（ゆとり分）</text>
		</g>
		<g>
			<text transform="matrix(1 0 0 1 143.6687 233.2335)" class="st5 st17">（前後差）</text>
			<rect x="138" y="233.2" class="st2" width="11.3" height="56.7"/>
			<text transform="matrix(1 0 0 1 143.6687 233.2335)" class="st3 st5 st17">（前後差）</text>
		</g>
		<line class="st21" x1="246.5" y1="668.6" x2="238" y2="668.6"/>
	</g>
</g>
<g id="前_00000181049617693776111150000011943548945838111164_">
	<g>
		<g>
			<line class="st9" x1="510.2" y1="774.7" x2="334.8" y2="774.7"/>
			<line class="st9" x1="334.8" y1="774.7" x2="334.8" y2="477"/>
			<line class="st8" x1="334.8" y1="477" x2="393.3" y2="477"/>
			<line class="st8" x1="334.8" y1="477" x2="334.8" y2="349.5"/>
			<line class="st8" x1="334.8" y1="349.5" x2="350.2" y2="349.5"/>
			<line class="st8" x1="393.3" y1="477" x2="451.8" y2="477"/>
			<line class="st8" x1="451.8" y1="477" x2="510.2" y2="477"/>
			<line class="st8" x1="451.8" y1="477" x2="451.8" y2="349.5"/>
			<line class="st8" x1="393.3" y1="477" x2="393.3" y2="346.9"/>
			<line class="st8" x1="350.2" y1="349.5" x2="437.8" y2="349.5"/>
			<path class="st9" d="M334.8,477c0-48.6,5.6-85,15.4-127.5c0.6-2.8,1.3-5.5,1.9-8.3"/>
			<line class="st9" x1="451.8" y1="349.5" x2="510.2" y2="349.5"/>
			<path class="st9" d="M352.1,341.2c14.7,2.6,28.6,4.5,41.2,5.7"/>
			<line class="st8" x1="437.8" y1="349.5" x2="451.8" y2="349.5"/>
			<g>
				<g>
					<line class="st18" x1="510.2" y1="349.5" x2="510.2" y2="377.8"/>
					<line class="st23" x1="510.2" y1="383.3" x2="510.2" y2="743.6"/>
					<line class="st18" x1="510.2" y1="746.3" x2="510.2" y2="774.7"/>
				</g>
			</g>
			<path class="st9" d="M393.3,346.9c5.9,0.6,11.5,1,16.8,1.4"/>
			<path class="st9" d="M410,348.2c18.6,1.2,33.2,1.2,41.7,1.2"/>
			<line class="st8" x1="510.2" y1="413.2" x2="401.7" y2="413.2"/>
			<line class="st8" x1="401.7" y1="347.6" x2="401.7" y2="413.2"/>
			<line class="st8" x1="444.8" y1="349.5" x2="444.8" y2="413.2"/>
			<line class="st9" x1="393.3" y1="346.9" x2="401.7" y2="413.2"/>
			<line class="st9" x1="401.7" y1="413.2" x2="410" y2="348.2"/>
			<line class="st9" x1="437.8" y1="349.5" x2="444.8" y2="413.2"/>
			<line class="st9" x1="444.8" y1="413.2" x2="451.8" y2="349.5"/>
		</g>
		<path class="st11" d="M510.2,477c-40.5,40.2-137.4,39.7-175.4,0"/>
		<path class="st12" d="M451.8,477c13.4-17.3,45.3-17,57.9,0"/>
		<path class="st12" d="M393.6,477c13.4-17.3,45.3-17,57.9,0"/>
		<path class="st12" d="M334.8,477c13.4-17.3,45.3-17,57.9,0"/>
		<path class="st12" d="M510.2,349.5c17.3,14.7,17,50,0,63.8"/>
		<path class="st12" d="M510.7,413.2c17.3,14.7,17,50,0,63.8"/>
		<line class="st13" x1="510.2" y1="306.9" x2="334.8" y2="306.9"/>
		<line class="st13" x1="510.1" y1="301.3" x2="510.1" y2="312.6"/>
		<line class="st13" x1="334.8" y1="301.3" x2="334.8" y2="312.6"/>
		<g>
			<text transform="matrix(0.9294 0 0 1 493.0077 471.6765)" class="st0 st16">HL</text>
			<rect x="493" y="461.1" class="st2" width="13.6" height="15"/>
			<text transform="matrix(0.9294 0 0 1 493.0077 471.6765)" class="st3 st0 st16">HL</text>
		</g>
		<g>
			<text transform="matrix(0.9294 0 0 1 483.0368 407.5548)" class="st0 st16">MHL</text>
			<rect x="483" y="397" class="st2" width="23.3" height="15"/>
			<text transform="matrix(0.9294 0 0 1 483.0368 407.5548)" class="st3 st0 st16">MHL</text>
		</g>
		<g>
			<text transform="matrix(0.9294 0 0 1 493.8996 344.029)" class="st0 st16">WL</text>
			<rect x="493.9" y="333.5" class="st2" width="16" height="15"/>
			<text transform="matrix(0.9294 0 0 1 493.8996 344.029)" class="st3 st0 st16">WL</text>
		</g>
		<g>
			<g>
				<g>
					<text transform="matrix(1 0 0 1 399.3541 509.1915)"><tspan x="0" y="0" class="st5 st4">H</tspan><tspan x="-3" y="5.7" class="st5 st4">—</tspan><tspan x="1.1" y="14.2" class="st5 st4">4</tspan></text>
					<text transform="matrix(1 0 0 1 413.044 516.2788)" class="st5 st4">＋2＋1</text>
				</g>
				<g>
					<rect x="396.3" y="493.2" class="st2" width="60.7" height="34.9"/>
				</g>
				<g>
					<text transform="matrix(1 0 0 1 399.3541 509.1915)"><tspan x="0" y="0" class="st3 st5 st4">H</tspan><tspan x="-3" y="5.7" class="st3 st5 st4">—</tspan><tspan x="1.1" y="14.2" class="st3 st5 st4">4</tspan></text>
					<text transform="matrix(1 0 0 1 413.044 516.2788)" class="st3 st5 st4">＋2＋1</text>
				</g>
			</g>
			<g>
				<text transform="matrix(1 0 0 1 431.3839 517.839)" class="st5 st17">（ゆとり分）</text>
				<rect x="425.7" y="517.8" class="st2" width="11.3" height="68"/>
				<text transform="matrix(1 0 0 1 431.3839 517.839)" class="st3 st5 st17">（ゆとり分）</text>
			</g>
			<g>
				<text transform="matrix(1 0 0 1 449.5078 517.8381)" class="st5 st17">（前後差）</text>
				<rect x="443.8" y="517.8" class="st2" width="11.3" height="56.7"/>
				<text transform="matrix(1 0 0 1 449.5078 517.8381)" class="st3 st5 st17">（前後差）</text>
			</g>
		</g>
		<path class="st10" d="M410,348.2c-2.6-15.2-11.8-15.8-16.7-1.5"/>
		<path class="st10" d="M451.8,349.7c-3.2-14.9-10.9-14.7-14,0"/>
		<g>
			<text transform="matrix(1 0 0 1 430.8982 337.1056)" class="st5 st15">〇－0.2</text>
			<rect x="430.9" y="327.1" class="st2" width="37.6" height="13.8"/>
			<text transform="matrix(1 0 0 1 430.8982 337.1056)" class="st3 st5 st15">〇－0.2</text>
		</g>
		<g>
			<text transform="matrix(1 0 0 1 382.6767 336.2656)" class="st5 st15">〇＋0.2</text>
			<rect x="382.7" y="326.3" class="st2" width="37.6" height="13.8"/>
			<text transform="matrix(1 0 0 1 382.6767 336.2656)" class="st3 st5 st15">〇＋0.2</text>
		</g>
		<g>
			<text transform="matrix(1 0 0 1 325.9838 334.7161)" class="st5 st4">1.2</text>
			<rect x="326" y="322.2" class="st2" width="18.7" height="17.3"/>
			<text transform="matrix(1 0 0 1 325.9838 334.7161)" class="st3 st5 st4">1.2</text>
		</g>
		<polyline class="st11" points="350.2,349.5 342.1,335.6 352.1,341.2 		"/>
		<polyline class="st11" points="350.2,349.5 330.7,360.3 334.8,349.5 		"/>
		<g>
			<text transform="matrix(1 0 0 1 321.2096 367.0451)" class="st5 st15">〇</text>
			<rect x="321.2" y="357.1" class="st2" width="11.3" height="13.8"/>
			<text transform="matrix(1 0 0 1 321.2096 367.0451)" class="st3 st5 st15">〇</text>
		</g>
		<g>
			<g>
				<line class="st18" x1="481.9" y1="551.8" x2="481.9" y2="699.7"/>
				<g>
					<polygon points="477.4,560.2 478.7,560.7 481.9,551.9 485.1,560.7 486.4,560.2 481.9,547.8 					"/>
				</g>
				<g>
					<polygon points="477.4,691.3 478.7,690.8 481.9,699.5 485.1,690.8 486.4,691.3 481.9,703.7 					"/>
				</g>
			</g>
		</g>
		<text transform="matrix(1 0 0 1 413.8579 612.3071)" class="st19 st24">前</text>
		<line class="st21" x1="343.3" y1="491.1" x2="334.8" y2="491.1"/>
		<line class="st11" x1="334.5" y1="490.9" x2="325.9" y2="497.7"/>
		<g>
			<g>
				<text transform="matrix(1 0 0 1 325.6627 499.1448)" class="st5 st17">あき止り（　）</text>
				<rect x="320" y="499.1" class="st2" width="11.3" height="79.4"/>
				<text transform="matrix(1 0 0 1 325.6627 499.1448)" class="st3 st5 st17">あき止り（　）</text>
			</g>
			<g>
				<text transform="matrix(1 0 0 1 325.6628 549.5974)" class="st5 st17">左</text>
				<rect x="320" y="549.6" class="st2" width="11.3" height="11.3"/>
				<text transform="matrix(1 0 0 1 325.6628 549.5974)" class="st3 st5 st17">左</text>
			</g>
		</g>
		<path class="st11" d="M380.7,306.9c29.9-26.8,101.3-26.4,129.3,0"/>
		<g>
			<rect x="412.7" y="276.5" class="st2" width="73.5" height="26.9"/>
			<g>
				<g>
					<g>
						<text transform="matrix(0.998 0 0 1 472.7008 295.9824)" class="st5 st15">〇</text>
					</g>
					<g>
						<rect x="472.7" y="286" class="st2" width="11.3" height="13.8"/>
					</g>
					<g>
						<text transform="matrix(0.998 0 0 1 472.7008 295.9824)" class="st3 st5 st15">〇</text>
					</g>
				</g>
				<line class="st25" x1="483.9" y1="286.4" x2="473" y2="297.4"/>
				<g>
					<text transform="matrix(1 0 0 1 414.124 287.7424)" class="st5 st16">W＋1</text>
					<text transform="matrix(2 0 0 1 415.3848 293.4119)" class="st5 st16">—</text>
					<text transform="matrix(1 0 0 1 425.6387 301.9158)" class="st5 st16">4</text>
					<rect x="414.1" y="277.2" class="st2" width="29.6" height="28.8"/>
					<text transform="matrix(1 0 0 1 414.124 287.7424)" class="st3 st5 st16">W＋1</text>
					<text transform="matrix(2 0 0 1 415.3848 293.4119)" class="st3 st5 st16">—</text>
					<text transform="matrix(1 0 0 1 425.6387 301.9158)" class="st3 st5 st16">4</text>
				</g>
				<g>
					<text transform="matrix(1 0 0 1 443.0066 294.8297)" class="st5 st16">＋2=</text>
					<rect x="443" y="284.3" class="st2" width="26.7" height="14.6"/>
					<text transform="matrix(1 0 0 1 443.0066 294.8297)" class="st3 st5 st16">＋2=</text>
				</g>
			</g>
		</g>
		<line class="st13" x1="380.9" y1="301.3" x2="380.9" y2="312.6"/>
		<path class="st12" d="M350.3,306.9c3.5-12.4,11.9-12.2,15.2,0"/>
		<path class="st12" d="M365.5,306.9c3.5-12.4,11.9-12.2,15.2,0"/>
		<path class="st12" d="M335,306.9c3.5-12.4,11.9-12.2,15.2,0"/>
		<g>
			<text transform="matrix(1 0 0 1 336.8961 296.2612)" class="st5 st15">〇</text>
			<rect x="336.9" y="289.1" class="st2" width="11.3" height="8.2"/>
			<text transform="matrix(1 0 0 1 336.8961 296.2612)" class="st3 st5 st15">〇</text>
		</g>
		<g>
			<text transform="matrix(1 0 0 1 352.1016 296.261)" class="st5 st15">〇</text>
			<rect x="352.1" y="289.1" class="st2" width="11.3" height="8.2"/>
			<text transform="matrix(1 0 0 1 352.1016 296.261)" class="st3 st5 st15">〇</text>
		</g>
		<g>
			<text transform="matrix(1 0 0 1 367.3074 296.2608)" class="st5 st15">〇</text>
			<rect x="367.3" y="289.1" class="st2" width="11.3" height="8.2"/>
			<text transform="matrix(1 0 0 1 367.3074 296.2608)" class="st3 st5 st15">〇</text>
		</g>
		<path class="st11" d="M352.1,341.2c13.4,36.4,3.2,119.3-17.3,149.9"/>
		<g>
			<text transform="matrix(1 0 0 1 347.6678 428.2545)" class="st5 st4">21</text>
			<rect x="347.7" y="415.8" class="st2" width="15.6" height="17.3"/>
			<text transform="matrix(1 0 0 1 347.6678 428.2545)" class="st3 st5 st4">21</text>
		</g>
		<text transform="matrix(1 0 0 1 518.3119 385.8037)" class="st5 st4">=</text>
		<text transform="matrix(1 0 0 1 518.3119 448.5717)" class="st5 st4">=</text>
		<text transform="matrix(0 -1 1 0 506.0666 519.2832)" class="st5 st4">CF</text>
		<g>
			<text transform="matrix(1 0 0 1 440.5602 221.8952)" class="st5 st17">（ゆとり分）</text>
			<rect x="434.9" y="221.9" class="st2" width="11.3" height="68"/>
			<text transform="matrix(1 0 0 1 440.5602 221.8952)" class="st3 st5 st17">（ゆとり分）</text>
		</g>
		<g>
			<text transform="matrix(1 0 0 1 454.5359 233.2334)" class="st5 st17">（前後差）</text>
			<rect x="448.9" y="233.2" class="st2" width="11.3" height="56.7"/>
			<text transform="matrix(1 0 0 1 454.5359 233.2334)" class="st3 st5 st17">（前後差）</text>
		</g>
		<path class="st11" d="M334.3,668.3c-27.1,32.7-26.7,75.6,0,106.3"/>
		<g>
			<text transform="matrix(1 0 0 1 307.5739 725.3454)" class="st5 st4">15</text>
			<rect x="307.6" y="712.9" class="st2" width="15.6" height="17.3"/>
			<text transform="matrix(1 0 0 1 307.5739 725.3454)" class="st3 st5 st4">15</text>
		</g>
		<line class="st21" x1="334.5" y1="668.6" x2="343" y2="668.6"/>
	</g>
</g>
<g id="ベルト_00000007422736191642196970000001100383924148606128_">
	<g>
		<g>
			<line class="st9" x1="308.7" y1="151.1" x2="57.1" y2="151.1"/>
			<line class="st9" x1="539" y1="172.3" x2="409.7" y2="172.3"/>
			<line class="st8" x1="78.1" y1="151.5" x2="78.1" y2="172.2"/>
			<line class="st9" x1="280.2" y1="172.3" x2="179.2" y2="172.3"/>
			<line class="st9" x1="539" y1="151.1" x2="308.7" y2="151.1"/>
			<line class="st9" x1="308.7" y1="172.3" x2="287.4" y2="172.3"/>
			<line class="st9" x1="57.1" y1="151.1" x2="57.1" y2="172.3"/>
			<line class="st9" x1="539" y1="172.3" x2="539" y2="151.1"/>
			<line class="st26" x1="409.7" y1="165.2" x2="409.7" y2="172.3"/>
		</g>
		<line class="st9" x1="409.7" y1="172.3" x2="280.3" y2="172.3"/>
		<line class="st26" x1="280.3" y1="165.2" x2="280.3" y2="172.3"/>
		<line class="st9" x1="179.1" y1="172.3" x2="57.1" y2="172.3"/>
		<line class="st26" x1="179.2" y1="165.2" x2="179.2" y2="172.3"/>
		<line class="st26" x1="409.7" y1="179.4" x2="409.7" y2="172.3"/>
		<line class="st26" x1="280.3" y1="179.4" x2="280.3" y2="172.3"/>
		<line class="st26" x1="179.2" y1="179.4" x2="179.2" y2="172.3"/>
		<line class="st8" x1="78.1" y1="131.1" x2="78.1" y2="142.5"/>
		<line class="st8" x1="538.8" y1="142.6" x2="538.8" y2="131.2"/>
		<line class="st26" x1="539" y1="179.2" x2="539" y2="172.1"/>
		<line class="st26" x1="78.1" y1="179.4" x2="78.1" y2="172.3"/>
		<g>
			<text transform="matrix(1 0 0 1 280.2083 178.0672)" class="st5 st17">右脇</text>
			<rect x="274.5" y="178.1" class="st2" width="11.3" height="22.7"/>
			<text transform="matrix(1 0 0 1 280.2083 178.0672)" class="st3 st5 st17">右脇</text>
		</g>
		<g>
			<text transform="matrix(1 0 0 1 179.2337 178.0673)" class="st5 st17">後ろ中心</text>
			<rect x="173.6" y="178.1" class="st2" width="11.3" height="45.4"/>
			<text transform="matrix(1 0 0 1 179.2337 178.0673)" class="st3 st5 st17">後ろ中心</text>
		</g>
		<g>
			<text transform="matrix(1 0 0 1 409.5511 178.0674)" class="st5 st17">前中心</text>
			<rect x="403.9" y="178.1" class="st2" width="11.3" height="34"/>
			<text transform="matrix(1 0 0 1 409.5511 178.0674)" class="st3 st5 st17">前中心</text>
		</g>
		<path class="st11" d="M280.2,172.3c-23.3,19-79.1,18.8-101,0"/>
		<g>
			<rect x="467.5" y="180.4" class="st2" width="14.6" height="14.6"/>
			<g>
				<g>
					<line class="st25" x1="480.3" y1="181.3" x2="469.4" y2="192.2"/>
					<g>
						<text transform="matrix(0.998 0 0 1 469.1591 190.834)" class="st5 st15">〇</text>
						<text transform="matrix(0.998 0 0 1 469.1591 190.834)" class="st2 st5 st15">〇</text>
						<text transform="matrix(0.998 0 0 1 469.1591 190.834)" class="st3 st5 st15">〇</text>
					</g>
				</g>
				<g>
					<line class="st2" x1="480.3" y1="181.3" x2="469.4" y2="192.2"/>
					<g>
						<text transform="matrix(0.998 0 0 1 469.1591 190.834)" class="st2 st5 st15">〇</text>
						<text transform="matrix(0.998 0 0 1 469.1591 190.834)" class="st2 st5 st15">〇</text>
						<text transform="matrix(0.998 0 0 1 469.1591 190.834)" class="st2 st5 st15">〇</text>
						<text transform="matrix(0.998 0 0 1 469.1591 190.834)" class="st2 st5 st15">〇</text>
					</g>
				</g>
				<g>
					<line class="st3" x1="480.3" y1="181.3" x2="469.4" y2="192.2"/>
					<g>
						<text transform="matrix(0.998 0 0 1 469.1591 190.834)" class="st3 st5 st15">〇</text>
						<text transform="matrix(0.998 0 0 1 469.1591 190.834)" class="st3 st5 st15">〇</text>
						<text transform="matrix(0.998 0 0 1 469.1591 190.834)" class="st3 st5 st15">〇</text>
						<text transform="matrix(0.998 0 0 1 469.1591 190.834)" class="st3 st5 st15">〇</text>
					</g>
				</g>
			</g>
		</g>
		<rect x="223" y="179.9" class="st2" width="14.6" height="14.6"/>
		<g>
			<text transform="matrix(1 0 0 1 225.2815 191.2125)" class="st5 st15">◎</text>
			<rect x="225.3" y="181.2" class="st2" width="11.3" height="13.8"/>
			<text transform="matrix(1 0 0 1 225.2815 191.2125)" class="st3 st5 st15">◎</text>
		</g>
		<text transform="matrix(1 0 0 1 477.4137 126.7851)" class="st19 st27">ベルト</text>
		<g>
			<g>
				<line class="st18" x1="379.2" y1="161.4" x2="316.3" y2="161.4"/>
				<g>
					<polygon points="370.8,156.9 370.3,158.2 379,161.4 370.3,164.6 370.8,165.9 383.2,161.4 					"/>
				</g>
				<g>
					<polygon points="324.7,156.9 325.2,158.2 316.4,161.4 325.2,164.6 324.7,165.9 312.3,161.4 					"/>
				</g>
			</g>
		</g>
		<path class="st11" d="M539.2,151.1c19,4.9,18.8,16.7,0,21.3"/>
		<g>
			<text transform="matrix(1 0 0 1 549.2684 166.471)" class="st5 st4">3</text>
			<rect x="549.3" y="154" class="st2" width="7.8" height="17.3"/>
			<text transform="matrix(1 0 0 1 549.2684 166.471)" class="st3 st5 st4">3</text>
		</g>
		<g>
			<text transform="matrix(1 0 0 1 539.4677 178.0674)" class="st5 st17">前左脇</text>
			<rect x="533.8" y="178.1" class="st2" width="11.3" height="34"/>
			<text transform="matrix(1 0 0 1 539.4677 178.0674)" class="st3 st5 st17">前左脇</text>
		</g>
		<g>
			<text transform="matrix(1 0 0 1 79.414 178.0674)" class="st5 st17">後ろ左脇</text>
			<rect x="73.7" y="178.1" class="st2" width="11.3" height="45.4"/>
			<text transform="matrix(1 0 0 1 79.414 178.0674)" class="st3 st5 st17">後ろ左脇</text>
		</g>
		<path class="st11" d="M539,172.3c-29.9,19-101.3,18.8-129.3,0"/>
		<path class="st11" d="M179.1,172.3c-23.3,19-79.1,18.8-101,0"/>
		<rect x="121.9" y="179.9" class="st2" width="14.6" height="14.6"/>
		<g>
			<text transform="matrix(1 0 0 1 124.1659 191.2125)" class="st5 st15">◎</text>
			<rect x="124.2" y="181.2" class="st2" width="11.3" height="13.8"/>
			<text transform="matrix(1 0 0 1 124.1659 191.2125)" class="st3 st5 st15">◎</text>
		</g>
		<path class="st11" d="M78.3,172.3c-16.7,10.7-19.6,18-21.3,0"/>
		<g>
			<text transform="matrix(1 0 0 1 59.5513 190.114)"><tspan x="0" y="0" class="st5 st15">3</tspan><tspan x="-2.5" y="11.3" class="st5 st15">持</tspan><tspan x="-2.5" y="22.7" class="st5 st15">出</tspan><tspan x="-2.5" y="34" class="st5 st15">し</tspan></text>
			<rect x="57" y="180.1" class="st2" width="11.3" height="47.8"/>
			<text transform="matrix(1 0 0 1 59.5513 190.114)"><tspan x="0" y="0" class="st3 st5 st15">3</tspan><tspan x="-2.5" y="11.3" class="st3 st5 st15">持</tspan><tspan x="-2.5" y="22.7" class="st3 st5 st15">出</tspan><tspan x="-2.5" y="34" class="st3 st5 st15">し</tspan></text>
		</g>
		<g>
			<g>
				<line class="st13" x1="82.4" y1="136.8" x2="534.5" y2="136.8"/>
				<g>
					<path d="M78.1,136.8c2,0.7,4.5,2,6.1,3.4l-1.2-3.4l1.2-3.4C82.6,134.8,80.1,136.1,78.1,136.8z"/>
				</g>
				<g>
					<path d="M538.8,136.8c-2,0.7-4.5,2-6.1,3.4l1.2-3.4l-1.2-3.4C534.3,134.8,536.8,136.1,538.8,136.8z"/>
				</g>
			</g>
		</g>
		<g>
			<g>
				<g>
					<text transform="matrix(0.998 0 0 1 295.1001 143.5682)" class="st5 st28">W＋1</text>
				</g>
				<g>
					<rect x="289.4" y="119.7" class="st2" width="53.3" height="29.7"/>
				</g>
				<g>
					<text transform="matrix(0.998 0 0 1 295.1001 143.5682)" class="st3 st5 st28">W＋1</text>
				</g>
			</g>
		</g>
		<polyline class="st2" points="353,180.2 353,194.9 338.3,194.9 338.3,180.2 		"/>
		<line class="st25" x1="351.2" y1="181.1" x2="340.2" y2="192"/>
		<g>
			<text transform="matrix(0.998 0 0 1 339.9746 190.6218)" class="st5 st15">〇</text>
			<text transform="matrix(0.998 0 0 1 339.9746 190.6218)" class="st2 st5 st15">〇</text>
			<text transform="matrix(0.998 0 0 1 339.9746 190.6218)" class="st3 st5 st15">〇</text>
		</g>
		<path class="st11" d="M409.8,172.1c-29.9,19-101.3,18.8-129.3,0"/>
		<g>
			<text transform="matrix(1 0 0 1 308.3587 124.3919)" class="st5 st15">（ゆとり分）</text>
			<rect x="308.4" y="114.4" class="st2" width="68" height="13.8"/>
			<text transform="matrix(1 0 0 1 308.3587 124.3919)" class="st3 st5 st15">（ゆとり分）</text>
		</g>
	</g>
</g>
<g id="前後兼用">
	<g>
		<g>
			<g>
				<line class="st13" x1="283.5" y1="354.2" x2="283.5" y2="769.6"/>
				<g>
					<polygon points="279.9,355.2 283.5,349.1 287,355.2 					"/>
				</g>
				<g>
					<polygon points="279.9,768.5 283.5,774.7 287,768.5 					"/>
				</g>
			</g>
		</g>
		<g>
			<g>
				<line class="st13" x1="311.8" y1="354.4" x2="311.8" y2="471.9"/>
				<g>
					<polygon points="308.3,355.4 311.8,349.3 315.3,355.4 					"/>
				</g>
				<g>
					<polygon points="308.3,470.9 311.8,477 315.3,470.9 					"/>
				</g>
			</g>
		</g>
		<line class="st13" x1="277.8" y1="349.3" x2="289.1" y2="349.3"/>
		<line class="st13" x1="306.1" y1="349.5" x2="317.5" y2="349.5"/>
		<line class="st13" x1="277.8" y1="774.7" x2="289.1" y2="774.7"/>
		<line class="st13" x1="306.1" y1="477" x2="317.5" y2="477"/>
		<g>
			<g>
				<text transform="matrix(1 0 0 1 312.3325 371.4302)" class="st5 st29">腰丈（　）</text>
				<rect x="305.2" y="371.4" class="st2" width="14.2" height="70.9"/>
				<text transform="matrix(1 0 0 1 312.3325 371.4302)" class="st3 st5 st29">腰丈（　）</text>
			</g>
			<g>
				<text transform="matrix(1 0 0 1.0037 304.0013 425.8557)" class="st5 st4">18</text>
				<text transform="matrix(1 0 0 1.0037 304.0013 425.8557)" class="st3 st5 st4">18</text>
			</g>
		</g>
		<g>
			<g>
				<text transform="matrix(1 0 0 1 283.5775 371.005)" class="st5 st29">スカート丈（　）</text>
				<rect x="276.5" y="371" class="st2" width="14.2" height="113.4"/>
				<text transform="matrix(1 0 0 1 283.5775 371.005)" class="st3 st5 st29">スカート丈（　）</text>
			</g>
			<g>
				<text transform="matrix(1 0 0 1.0037 275.5415 467.3337)" class="st5 st4">60</text>
				<text transform="matrix(1 0 0 1.0037 275.5415 467.3337)" class="st3 st5 st4">60</text>
			</g>
		</g>
		<g>
			<g>
				<line class="st11" x1="251.5" y1="666.7" x2="292.1" y2="653.8"/>
				<g>
					<polygon points="253,668 246.7,668.3 252,664.8 					"/>
				</g>
			</g>
		</g>
		<g>
			<text transform="matrix(1 0 0 1 336.2657 805.3495)" class="st5 st4">※スリット有りの場合</text>
			<rect x="336.3" y="792.9" class="st2" width="141.7" height="17.3"/>
			<text transform="matrix(1 0 0 1 336.2657 805.3495)" class="st3 st5 st4">※スリット有りの場合</text>
		</g>
		<g>
			<text transform="matrix(1 0 0 1 300.0422 610.4229)" class="st5 st17">スリット止り</text>
			<rect x="294.4" y="610.4" class="st2" width="11.3" height="68"/>
			<text transform="matrix(1 0 0 1 300.0422 610.4229)" class="st3 st5 st17">スリット止り</text>
		</g>
		<g>
			<g>
				<line class="st11" x1="330" y1="665.6" x2="309.2" y2="652.7"/>
				<g>
					<polygon points="329.9,663.6 334.3,668.3 328.2,666.4 					"/>
				</g>
			</g>
		</g>
		<g>
			<g>
				<polyline class="st25" points="320,782.8 320,800 340,800 				"/>
				<g>
					<polygon points="320,775.8 316,785.7 320,783.3 324,785.7 					"/>
				</g>
			</g>
		</g>
	</g>
</g>
</svg>
